<?xml version="1.0" encoding="utf-8"?>
<!-- Generator: Adobe Illustrator 17.1.0, SVG Export Plug-In . SVG Version: 6.00 Build 0)  -->
<!DOCTYPE svg PUBLIC "-//W3C//DTD SVG 1.1//EN" "http://www.w3.org/Graphics/SVG/1.1/DTD/svg11.dtd">
<svg version="1.1" id="Layer_1" xmlns="http://www.w3.org/2000/svg" xmlns:xlink="http://www.w3.org/1999/xlink" x="0px" y="0px"
	 viewBox="0 0 100 100" enable-background="new 0 0 100 100" xml:space="preserve">
<circle fill="#F5EBDD" cx="50.476" cy="50.135" r="48.633"/>
<g>
	<g>
		<path fill="#B0584A" d="M73.779,71.987H27.173c-4.573,0-8.28-3.707-8.28-8.28V41.917c0-4.573,3.707-8.28,8.28-8.28h46.605
			c4.573,0,8.28,3.707,8.28,8.28v21.791C82.058,68.28,78.352,71.987,73.779,71.987z"/>
		<path fill="#B0584A" d="M50.197,42.661H36.283c-2.544,0-4.605-2.637-4.605-5.89v-5.516c0-3.253,2.062-5.89,4.605-5.89h13.914
			c2.544,0,4.605,2.637,4.605,5.89v5.516C54.802,40.024,52.74,42.661,50.197,42.661z"/>
		<path fill="#F6BE6C" d="M47.8,33.644h-8.214c-1.117-1.401-2.023-2.307-2.023-3.424V30.18c0-1.117,0.906-2.023,2.023-2.023H47.8
			c1.117,0,2.023,0.906,2.023,2.023v0.041C49.823,31.338,48.917,32.243,47.8,33.644z"/>
		<circle fill="#F6BE6C" cx="50.696" cy="52.812" r="13.688"/>
		<circle fill="#99636A" cx="50.696" cy="52.812" r="10.969"/>
	</g>
</g>
</svg>
