<?xml version="1.0" encoding="utf-8"?>
<!-- Generator: Adobe Illustrator 17.1.0, SVG Export Plug-In . SVG Version: 6.00 Build 0)  -->
<!DOCTYPE svg PUBLIC "-//W3C//DTD SVG 1.1//EN" "http://www.w3.org/Graphics/SVG/1.1/DTD/svg11.dtd">
<svg version="1.1" id="Layer_1" xmlns="http://www.w3.org/2000/svg" xmlns:xlink="http://www.w3.org/1999/xlink" x="0px" y="0px"
	 viewBox="0 0 1024 900" enable-background="new 0 0 1024 900" xml:space="preserve">
<g>
	<g>
		<path fill="#FFFFFF" stroke="#B07C65" stroke-width="7.9673" stroke-miterlimit="10" d="M235.632,384.679v205.669
			c0,17.802,10.714,32.202,23.902,32.202h65.852v108.771c0,5.638,0.937,11.026,2.552,16.025h-2.552c0,0-21.899,32.244-15.636,41.34
			h110.58h78.204h110.569c6.28-9.096-15.625-41.34-15.625-41.34h-2.552c1.615-4.999,2.552-10.387,2.552-16.025V326.177
			c0-25.509,3.649-46.186-18.576-46.186c0,0-50.327,5.124-115.277,5.124c-81.123,0-115.655-5.124-115.655-5.124
			c-22.214,0-18.583,20.677-18.583,46.186v26.3h-65.852C246.346,352.477,235.632,366.891,235.632,384.679z M262.124,409.536
			c0-17.789,10.682-10.554,23.877-10.554h39.385V586.78h-39.385c-13.195,0-23.877-14.414-23.877-32.202V409.536z"/>
		<polygon fill="#FFFFFF" stroke="#B07C65" stroke-width="7.9673" stroke-miterlimit="10" points="636.598,469.093 797.62,326.676 
			628.623,326.676 459.624,326.676 620.622,469.093 620.622,757.039 551.212,787.727 628.623,787.727 706.032,787.727 
			636.598,757.039 		"/>
		<path fill="#B07C65" d="M717.465,388.623c-0.438,0.666-2.042,0.36-3.583-0.639l0,0c-1.527-1.027-2.405-2.388-1.937-3.055
			l61.645-92.676c0.444-0.667,2.041-0.375,3.558,0.653l0,0c1.534,1.014,2.44,2.375,1.986,3.041L717.465,388.623z"/>
		<path fill="#B07C65" stroke="#F7F7F7" stroke-width="7.9673" stroke-miterlimit="10" d="M712.67,263.854
			c5.197,3.458,7.908,9.568,8.054,16.65l2.948,1.945c6.562-2.583,13.261-2.458,18.475,1c5.201,3.472,7.895,9.61,8.057,16.65
			l2.326,1.569c6.592-2.596,13.268-2.458,18.483,1c5.2,3.457,7.894,9.582,8.065,16.65l4.093,2.736
			c6.585-2.569,13.272-2.458,18.479,1.014c5.221,3.457,7.915,9.581,8.061,16.65l3.52,2.346c6.589-2.582,13.279-2.458,18.468,1
			c5.214,3.457,7.912,9.595,8.082,16.65l0.732,0.472c0,0,13.157-70.473-36.823-104.356v-0.014c-0.09-0.083-0.195-0.125-0.292-0.195
			c-0.097-0.055-0.188-0.139-0.274-0.194l-0.031,0.014c-50.563-33.021-110.5,6.333-110.5,6.333l1.59,1.069
			C700.756,260.258,707.456,260.383,712.67,263.854z"/>
		<polygon fill="#B07C65" points="627.863,461.873 696.024,406.147 524.574,377.208 		"/>
		<path fill="#B07C65" d="M340.012,476.259l119.613,4.305l120.936-4.305V710.34c0,0-10.928,36.076-120.936,36.076
			c-110.007,0-119.613-36.076-119.613-36.076V476.259z"/>
	</g>
</g>
</svg>
