<?xml version="1.0" encoding="utf-8"?>
<!-- Generator: Adobe Illustrator 17.1.0, SVG Export Plug-In . SVG Version: 6.00 Build 0)  -->
<!DOCTYPE svg PUBLIC "-//W3C//DTD SVG 1.1//EN" "http://www.w3.org/Graphics/SVG/1.1/DTD/svg11.dtd">
<svg version="1.1" id="Layer_1" xmlns="http://www.w3.org/2000/svg" xmlns:xlink="http://www.w3.org/1999/xlink" x="0px" y="0px"
	 viewBox="0 0 936 343" enable-background="new 0 0 936 343" xml:space="preserve">
<g>
	<text transform="matrix(1 0 0 1 351.7213 234.2601)" fill="#E2E2E2" font-family="'Comfortaa-Bold'" font-size="174.442">Fusche</text>
</g>
<g>
	<path fill="none" stroke="#E7E7E8" stroke-width="2.627" stroke-miterlimit="10" d="M245.78,227.39
		c0-13.895-5.932-19.794-13.652-19.794"/>
	<polygon fill="#E7E7E8" stroke="#E7E7E8" stroke-width="0.8757" stroke-miterlimit="10" points="123.862,189.871 123.862,186.653 
		75.203,186.653 75.203,171.279 72.7,171.279 72.7,186.653 63.084,186.653 63.084,171.279 60.581,171.279 60.581,186.653 
		43.062,186.653 43.062,189.871 55.106,189.871 55.106,232.773 56.849,232.773 56.849,189.871 67.061,189.871 67.061,232.773 
		68.804,232.773 68.804,189.871 79.016,189.871 79.016,232.773 80.759,232.773 80.759,189.871 	"/>
	
		<rect x="113.319" y="237.188" fill="#E7E7E8" stroke="#E7E7E8" stroke-width="0.8757" stroke-miterlimit="10" width="2.978" height="47.908"/>
	
		<rect x="123.249" y="237.188" fill="#E7E7E8" stroke="#E7E7E8" stroke-width="0.8757" stroke-miterlimit="10" width="2.978" height="47.908"/>
	
		<rect x="133.179" y="237.188" fill="#E7E7E8" stroke="#E7E7E8" stroke-width="0.8757" stroke-miterlimit="10" width="2.978" height="47.908"/>
	
		<rect x="143.109" y="237.188" fill="#E7E7E8" stroke="#E7E7E8" stroke-width="0.8757" stroke-miterlimit="10" width="2.978" height="47.908"/>
	<polygon fill="#E7E7E8" stroke="#E7E7E8" stroke-width="0.8757" stroke-miterlimit="10" points="139.34,205.994 136.952,203.605 
		108.384,232.172 110.773,234.561 124.002,221.333 136.567,221.333 136.567,226.695 139.195,226.695 139.195,221.333 139.2,221.333 
		139.2,219.083 139.195,219.083 136.567,219.083 126.251,219.083 130.816,214.519 155.003,214.519 155.003,212.269 133.065,212.269 
			"/>
	
		<rect x="134.108" y="109.786" fill="#E7E7E8" stroke="#E7E7E8" stroke-width="0.8757" stroke-miterlimit="10" width="1.925" height="23.954"/>
	
		<rect x="142.756" y="109.786" fill="#E7E7E8" stroke="#E7E7E8" stroke-width="0.8757" stroke-miterlimit="10" width="1.925" height="23.954"/>
	
		<rect x="176.638" y="109.786" fill="#E7E7E8" stroke="#E7E7E8" stroke-width="0.8757" stroke-miterlimit="10" width="1.925" height="23.954"/>
	
		<rect x="185.286" y="109.786" fill="#E7E7E8" stroke="#E7E7E8" stroke-width="0.8757" stroke-miterlimit="10" width="1.925" height="23.954"/>
	
		<rect x="176.638" y="203.765" fill="#E7E7E8" stroke="#E7E7E8" stroke-width="0.8757" stroke-miterlimit="10" width="1.925" height="23.954"/>
	<polygon fill="#E7E7E8" stroke="#E7E7E8" stroke-width="0.8757" stroke-miterlimit="10" points="183.318,203.765 181.393,203.765 
		181.393,227.719 183.318,227.719 183.318,221.385 217.924,221.385 217.924,218.664 183.318,218.664 	"/>
	<path fill="#E7E7E8" stroke="#E7E7E8" stroke-width="0.4378" stroke-miterlimit="10" d="M51.983,92.744l1.895,1.895l9.959-9.959
		l7.643,7.643l-10.798,10.798l2.368,2.368l10.798-10.798l9.333,9.333l1.895-1.895l-9.333-9.333l8.853-8.853l10.172,10.172
		l1.895-1.895L86.49,82.049l8.597-8.597l-2.368-2.368l-8.597,8.597l-7.643-7.643l9.436-9.436l-1.895-1.895l-9.436,9.436
		l-9.959-9.959l-1.895,1.895l9.959,9.959l-8.853,8.853L53.038,70.093l-1.895,1.895l10.798,10.798L51.983,92.744z M74.584,73.932
		l7.643,7.643l-8.853,8.853l-7.643-7.643L74.584,73.932z"/>
	<path fill="#E7E7E8" stroke="#E7E7E8" stroke-width="0.2189" stroke-miterlimit="10" d="M174.126,50.849l11.703,11.703
		l-15.468,15.468l-11.703-11.703l-2.724,2.724l43.23,43.23l2.724-2.724l-8.728-8.728l15.468-15.468l17.804,17.804l1.907-1.907
		l-52.306-52.306L174.126,50.849z M188.218,64.941l7.816,7.816l-15.468,15.468l-7.816-7.816L188.218,64.941z M190.771,98.431
		l-7.816-7.816l15.468-15.468l7.816,7.816L190.771,98.431z"/>
	<path fill="#E7E7E8" stroke="#E7E7E8" stroke-width="0.2189" stroke-miterlimit="10" d="M280.1,128.385v-3.486h-19.791v-15.114
		h-3.91v15.114h-13.823v-15.114h-3.285v15.114h-8.093v3.486h8.093v18.53h-8.093v4.111h8.093v15.769h3.285v-15.769h13.823v15.769
		h3.91v-15.769H280.1v-4.111h-19.791v-18.53H280.1z M256.398,146.915h-13.823v-18.53h13.823V146.915z"/>
	<polygon fill="#E7E7E8" stroke="#E7E7E8" stroke-width="0.8757" stroke-miterlimit="10" points="251.809,210.518 242.184,200.892 
		242.184,175.666 239.682,175.666 239.682,200.936 239.787,200.972 250.858,212.044 250.858,212.269 259.752,212.269 
		259.752,231.463 261.652,231.463 261.652,212.269 261.652,210.518 259.752,210.518 	"/>
	<g>
		<path fill="#DDDDDC" d="M256.494,177.484c21.245,0,38.53-17.863,38.53-39.819v-0.635c0-21.674-17.633-39.306-39.315-39.306
			l-22.091,0.029l0.005-26.401c0-21.55-17.265-38.43-39.306-38.43h-0.635c-21.674,0-39.307,17.633-39.307,39.306v25.628
			l-47.569,0.062l0.019-16.862c0-21.291-15.29-34.971-33.389-34.971h-0.522c-18.393,0-33.357,14.963-33.357,33.356v2.55
			c0,15.205,7.999,27.154,22.994,31.195c2.483,0.669,6.881,1.039,11.493,1.24l-0.08,0.067l1.731-0.002
			c7.134,0.249,14.286,0.132,15.31,0.113l-0.009,46.484l-15.813-0.061l-9.065,0.695c-21.443,0.12-38.205,17.342-38.205,39.306v0.635
			c0,21.674,17.632,39.307,39.306,39.307H90.98l-0.004,21.269c0,21.55,17.265,38.43,39.306,38.43h0.635
			c21.674,0,39.307-17.633,39.307-39.306V240.97h47.708l-0.02,17.784c0,18.956,15.29,34.971,33.389,34.971h0.522
			c18.393,0,33.357-14.963,33.357-33.356v-2.55c0-15.205-7.999-27.154-22.994-31.195c-6.903-1.86-28.592-0.539-28.592-0.539
			l0.009-48.632L256.494,177.484z M233.616,113.501l22.101-0.015c12.983,0,23.545,10.562,23.545,23.544v0.635
			c0,13.265-10.21,24.057-22.74,24.057l-22.915-0.088L233.616,113.501z M90.982,225.208H67.218
			c-12.982,0-23.544-10.562-23.544-23.545v-0.635c0-13.203,9.957-23.544,22.668-23.544l9.116-0.256l15.534,0.022L90.982,225.208z
			 M170.223,70.285c0.995-12.147,11.22-21.602,23.458-21.602h0.635c13.202,0,23.544,9.957,23.544,22.671l0.011,26.419l-47.649,0.062
			V70.285z M170.223,113.546l47.656-0.033l0.019,48.061l-16.811-0.064v-31.707h-30.864V113.546z M67.212,98.839
			c-7.636-1.827-12.644-8.387-12.644-16.848v-2.55c0-10.116,8.23-18.345,18.345-18.345h0.522c7.546,0,14.372,5.587,17.083,13.033
			l0.007-0.013c0.015,0.048,0.029,0.099,0.044,0.147c0.218,0.613,0.418,1.233,0.579,1.869v0.367
			c1.576,7.404,1.057,18.256,0.859,21.433l-0.005,0.005l-0.007,0.007h0.011c-0.036,0.573-0.061,0.895-0.061,0.895h-0.8
			c0,0-21.203,0.213-22.97,0H67.212z M106.676,113.59l47.699-0.034v16.246h-32.527v31.404l-15.152-0.058L106.676,113.59z
			 M154.375,263.296c-0.989,12.151-11.216,21.611-23.458,21.611h-0.635c-13.203,0-23.544-9.957-23.544-22.671l-0.009-21.267h47.646
			V263.296z M154.375,225.208h-47.653l-0.02-47.936l15.146,0.021v31.748h32.527V225.208z M129.651,200.757v-62.96h63.928v62.96
			H129.651z M170.223,225.208v-16.166h30.864v-31.636l16.818,0.024l0.019,47.779H170.223z M256.562,240.97h0.963
			c7.636,1.827,12.644,8.387,12.644,16.848v2.55c0,10.116-8.23,18.345-18.345,18.345h-0.522c-7.546,0-14.372-5.587-17.083-13.033
			l-0.007,0.013c-0.015-0.048-0.029-0.099-0.044-0.147c-0.218-0.613-0.418-1.233-0.579-1.869v-0.367
			c-1.864-8.758-0.797-22.34-0.797-22.34h0.8C233.592,240.97,254.795,240.757,256.562,240.97z"/>
		<path fill="#DDDDDC" d="M233.592,241.551c0-0.195-0.001-0.384-0.001-0.581l-0.001,0.583L233.592,241.551z"/>
	</g>
</g>
</svg>
