<?xml version="1.0" encoding="utf-8"?>
<!-- Generator: Adobe Illustrator 17.1.0, SVG Export Plug-In . SVG Version: 6.00 Build 0)  -->
<!DOCTYPE svg PUBLIC "-//W3C//DTD SVG 1.1//EN" "http://www.w3.org/Graphics/SVG/1.1/DTD/svg11.dtd">
<svg version="1.1" id="Layer_1" xmlns="http://www.w3.org/2000/svg" xmlns:xlink="http://www.w3.org/1999/xlink" x="0px" y="0px"
	 viewBox="0 0 1024 900" enable-background="new 0 0 1024 900" xml:space="preserve">
<g>
	<g>
		<path fill="#FFFFFF" stroke="#C89562" stroke-width="10.36" stroke-miterlimit="10" d="M308.875,780.735
			c0,18.141-13.619,32.878-30.435,32.878H125.484c-16.801,0-30.427-14.737-30.427-32.878V495.068
			c0-18.149,13.626-32.854,30.427-32.854H278.44c16.816,0,30.435,14.705,30.435,32.854V780.735z"/>
		<path fill="#C89562" d="M289.428,710.505c0,48.289-39.141,87.433-87.439,87.433c-48.314,0-87.494-39.144-87.494-87.433
			c0-48.274,39.18-87.425,87.494-87.425C250.287,623.08,289.428,662.232,289.428,710.505z"/>
		<path fill="#FFFFFF" stroke="#C89562" stroke-width="10.36" stroke-miterlimit="10" d="M269.144,710.505
			c0,37.081-30.062,67.158-67.155,67.158c-37.139,0-67.209-30.078-67.209-67.158c0-37.097,30.07-67.174,67.209-67.174
			C239.082,643.331,269.144,673.408,269.144,710.505z"/>
		<path fill="#C89562" d="M231.128,710.505c0,16.078-13.044,29.147-29.139,29.147c-16.117,0-29.162-13.069-29.162-29.147
			c0-16.094,13.044-29.14,29.162-29.14C218.083,681.366,231.128,694.411,231.128,710.505z"/>
		<path fill="#C89562" d="M263.254,544.628c0,33.809-27.439,61.234-61.264,61.234c-33.849,0-61.296-27.425-61.296-61.234
			c0-33.816,27.447-61.241,61.296-61.241C235.815,483.387,263.254,510.812,263.254,544.628z"/>
		<path fill="#FFFFFF" stroke="#C89562" stroke-width="10.36" stroke-miterlimit="10" d="M249.022,544.628
			c0,25.967-21.068,47.032-47.033,47.032c-26.012,0-47.095-21.065-47.095-47.032c0-25.975,21.084-47.047,47.095-47.047
			C227.954,497.581,249.022,518.653,249.022,544.628z"/>
		<path fill="#C89562" d="M222.39,544.628c0,11.27-9.126,20.414-20.401,20.414c-11.298,0-20.424-9.144-20.424-20.414
			c0-11.269,9.126-20.414,20.424-20.414C213.264,524.214,222.39,533.359,222.39,544.628z"/>
		<path fill="#FFFFFF" stroke="#C89562" stroke-width="10.36" stroke-miterlimit="10" d="M850.519,564.305
			c0,15.131-11.322,27.355-25.305,27.355H697.912c-13.968,0-25.336-12.224-25.336-27.355V326.578
			c0-15.093,11.368-27.348,25.336-27.348h127.302c13.984,0,25.305,12.255,25.305,27.348V564.305z"/>
		<path fill="#C89562" d="M834.355,505.871c0,40.161-32.576,72.736-72.796,72.736c-40.189,0-72.796-32.575-72.796-72.736
			c0-40.175,32.607-72.766,72.796-72.766C801.779,433.105,834.355,465.696,834.355,505.871z"/>
		<path fill="#FFFFFF" stroke="#C89562" stroke-width="10.36" stroke-miterlimit="10" d="M817.485,505.871
			c0,30.869-25.026,55.89-55.926,55.89c-30.884,0-55.941-25.021-55.941-55.89c0-30.869,25.057-55.904,55.941-55.904
			C792.46,449.967,817.485,475.003,817.485,505.871z"/>
		<path fill="#C89562" d="M785.848,505.871c0,13.395-10.871,24.238-24.288,24.238c-13.393,0-24.257-10.843-24.257-24.238
			c0-13.394,10.864-24.253,24.257-24.253C774.976,481.619,785.848,492.477,785.848,505.871z"/>
		<path fill="#C89562" d="M812.566,367.815c0,28.139-22.845,50.957-51.007,50.957c-28.176,0-50.983-22.818-50.983-50.957
			c0-28.169,22.806-50.964,50.983-50.964C789.721,316.851,812.566,339.646,812.566,367.815z"/>
		<path fill="#FFFFFF" stroke="#C89562" stroke-width="10.36" stroke-miterlimit="10" d="M800.747,367.815
			c0,21.608-17.56,39.144-39.187,39.144s-39.141-17.536-39.141-39.144c0-21.615,17.514-39.167,39.141-39.167
			S800.747,346.2,800.747,367.815z"/>
		<path fill="#C89562" d="M778.554,367.815c0,9.385-7.605,16.978-16.995,16.978s-16.987-7.593-16.987-16.978
			c0-9.4,7.597-16.985,16.987-16.985S778.554,358.415,778.554,367.815z"/>
		<path fill="#FFFFFF" stroke="#C89562" stroke-width="10.36" stroke-miterlimit="10" d="M672.576,757.723
			c0,30.853-23.164,55.889-51.744,55.889H360.626c-28.565,0-51.751-25.036-51.751-55.889V271.75
			c0-30.853,23.186-55.881,51.751-55.881h260.206c28.58,0,51.744,25.029,51.744,55.881V757.723z"/>
		<path fill="#C89562" d="M639.542,638.235c0,82.12-66.643,148.713-148.805,148.713c-82.178,0-148.805-66.593-148.805-148.713
			c0-82.136,66.627-148.721,148.805-148.721C572.899,489.515,639.542,556.1,639.542,638.235z"/>
		<path fill="#FFFFFF" stroke="#C89562" stroke-width="10.36" stroke-miterlimit="10" d="M605.026,638.235
			c0,63.071-51.17,114.222-114.289,114.222c-63.135,0-114.288-51.15-114.288-114.222c0-63.102,51.153-114.238,114.288-114.238
			C553.856,523.998,605.026,575.133,605.026,638.235z"/>
		<path fill="#C89562" d="M540.339,638.235c0,27.371-22.225,49.568-49.602,49.568c-27.393,0-49.587-22.197-49.587-49.568
			c0-27.387,22.194-49.576,49.587-49.576C518.114,588.659,540.339,610.849,540.339,638.235z"/>
		<path fill="#C89562" d="M594.953,356.065c0,57.511-46.63,104.163-104.216,104.163c-57.571,0-104.24-46.652-104.24-104.163
			c0-57.556,46.669-104.193,104.24-104.193C548.323,251.872,594.953,298.509,594.953,356.065z"/>
		<path fill="#FFFFFF" stroke="#C89562" stroke-width="10.36" stroke-miterlimit="10" d="M570.804,356.065
			c0,44.186-35.843,80.011-80.067,80.011c-44.209,0-80.083-35.825-80.083-80.011c0-44.224,35.875-80.018,80.083-80.018
			C534.961,276.047,570.804,311.841,570.804,356.065z"/>
		<path fill="#C89562" d="M525.486,356.065c0,19.15-15.543,34.716-34.749,34.716c-19.191,0-34.734-15.566-34.734-34.716
			c0-19.188,15.543-34.723,34.734-34.723C509.943,321.342,525.486,336.877,525.486,356.065z"/>
		<path fill="#FFFFFF" stroke="#C89562" stroke-width="10.36" stroke-miterlimit="10" d="M115.303,460.228
			c-11.159,0-20.168-8.369-20.168-18.685v-93.885c0-10.292,9.009-18.662,20.168-18.662h175.53c11.152,0,20.207,8.369,20.207,18.662
			v93.885c0,10.316-9.055,18.685-20.207,18.685H115.303z"/>
		<path fill="#C89562" d="M158.487,448.307c-29.674,0-53.738-24.043-53.738-53.694c0-29.651,24.063-53.687,53.738-53.687
			c29.642,0.008,53.714,24.036,53.714,53.687C212.201,424.264,188.129,448.307,158.487,448.307z"/>
		<path fill="#FFFFFF" stroke="#C89562" stroke-width="10.36" stroke-miterlimit="10" d="M158.487,435.843
			c-22.791,0-41.283-18.467-41.283-41.231c0-22.772,18.491-41.239,41.283-41.239c22.783,0,41.244,18.467,41.244,41.239
			C199.731,417.376,181.27,435.843,158.487,435.843z"/>
		<path fill="#C89562" d="M158.487,412.514c-9.918,0-17.918-8.02-17.918-17.901c0-9.874,8-17.901,17.918-17.901
			c9.871,0,17.91,8.027,17.91,17.901C176.397,404.494,168.358,412.514,158.487,412.514z"/>
		<path fill="#C89562" d="M260.383,432.221c-20.766,0-37.589-16.823-37.589-37.608c0-20.771,16.823-37.617,37.589-37.617
			c20.797,0,37.612,16.846,37.612,37.617C297.995,415.398,281.179,432.221,260.383,432.221z"/>
		<path fill="#FFFFFF" stroke="#C89562" stroke-width="10.36" stroke-miterlimit="10" d="M260.383,423.504
			c-15.931,0-28.898-12.938-28.898-28.891c0-15.954,12.967-28.884,28.898-28.884c15.954,0,28.937,12.93,28.937,28.884
			C289.319,410.566,276.337,423.504,260.383,423.504z"/>
		<path fill="#C89562" d="M260.383,407.154c-6.906,0-12.517-5.623-12.517-12.541c0-6.926,5.611-12.526,12.517-12.526
			c6.922,0,12.564,5.6,12.564,12.526C272.946,401.531,267.304,407.154,260.383,407.154z"/>
		<path fill="#FFFFFF" stroke="#C89562" stroke-width="10.36" stroke-miterlimit="10" d="M672.576,615.595
			c0-11.145,8.396-20.197,18.693-20.197h93.918c10.336,0,18.702,9.052,18.702,20.197v175.432c0,11.13-8.366,20.166-18.702,20.166
			H691.27c-10.336,0-18.693-9.036-18.693-20.166V615.595z"/>
		<path fill="#C89562" d="M684.527,658.711c0-29.643,24.055-53.687,53.73-53.687c29.666,0,53.715,24.044,53.715,53.687
			c0,29.666-24.048,53.71-53.715,53.71C708.582,712.421,684.527,688.377,684.527,658.711z"/>
		<path fill="#FFFFFF" stroke="#C89562" stroke-width="10.36" stroke-miterlimit="10" d="M696.997,658.711
			c0-22.764,18.453-41.231,41.26-41.231c22.791,0,41.244,18.467,41.244,41.231c0,22.803-18.453,41.254-41.244,41.254
			C715.45,699.964,696.997,681.513,696.997,658.711z"/>
		<path fill="#C89562" d="M720.338,658.711c0-9.866,7.985-17.886,17.918-17.886c9.871,0,17.879,8.02,17.879,17.886
			c0,9.889-8.008,17.909-17.879,17.909C728.324,676.619,720.338,668.599,720.338,658.711z"/>
		<path fill="#C89562" d="M700.597,760.57c0-20.739,16.855-37.585,37.659-37.585c20.75,0,37.597,16.846,37.597,37.585
			c0,20.778-16.847,37.608-37.597,37.608C717.452,798.178,700.597,781.348,700.597,760.57z"/>
		<path fill="#FFFFFF" stroke="#C89562" stroke-width="10.36" stroke-miterlimit="10" d="M709.335,760.57
			c0-15.923,12.936-28.876,28.922-28.876c15.954,0,28.89,12.953,28.89,28.876c0,15.977-12.936,28.899-28.89,28.899
			C722.271,789.469,709.335,776.547,709.335,760.57z"/>
		<path fill="#C89562" d="M725.716,760.57c0-6.903,5.595-12.533,12.54-12.533c6.899,0,12.517,5.63,12.517,12.533
			c0,6.941-5.618,12.572-12.517,12.572C731.311,773.142,725.716,767.511,725.716,760.57z"/>
		<path fill="#FFFFFF" stroke="#C89562" stroke-width="10.36" stroke-miterlimit="10" d="M935.18,791.027
			c0,11.13-8.342,20.166-18.67,20.166h-93.934c-10.305,0-18.685-9.036-18.685-20.166V615.595c0-11.145,8.38-20.197,18.685-20.197
			h93.95c10.313,0,18.654,9.052,18.654,20.197V791.027z"/>
		<path fill="#C89562" d="M923.238,747.874c0,29.651-24.048,53.702-53.699,53.702c-29.682,0-53.715-24.051-53.715-53.702
			c0-29.628,24.032-53.672,53.715-53.672C899.19,694.202,923.238,718.246,923.238,747.874z"/>
		<path fill="#FFFFFF" stroke="#C89562" stroke-width="10.36" stroke-miterlimit="10" d="M910.799,747.874
			c0,22.779-18.469,41.238-41.26,41.238c-22.799,0-41.26-18.459-41.26-41.238c0-22.757,18.461-41.247,41.26-41.247
			C892.33,706.627,910.799,725.117,910.799,747.874z"/>
		<path fill="#C89562" d="M887.441,747.874c0,9.881-8.031,17.901-17.902,17.901c-9.887,0-17.887-8.02-17.887-17.901
			c0-9.882,8-17.886,17.887-17.886C879.41,729.988,887.441,737.992,887.441,747.874z"/>
		<path fill="#C89562" d="M907.167,646.015c0,20.77-16.839,37.608-37.628,37.608c-20.758,0-37.636-16.838-37.636-37.608
			c0-20.771,16.879-37.617,37.636-37.617C890.328,608.398,907.167,625.244,907.167,646.015z"/>
		<path fill="#FFFFFF" stroke="#C89562" stroke-width="10.36" stroke-miterlimit="10" d="M898.468,646.015
			c0,15.946-12.959,28.891-28.929,28.891c-15.954,0-28.914-12.945-28.914-28.891c0-15.954,12.959-28.907,28.914-28.907
			C885.509,617.108,898.468,630.06,898.468,646.015z"/>
		<path fill="#C89562" d="M882.079,646.015c0,6.918-5.611,12.541-12.54,12.541c-6.938,0-12.541-5.623-12.541-12.541
			c0-6.942,5.603-12.51,12.541-12.51C876.468,633.504,882.079,639.072,882.079,646.015z"/>
	</g>
</g>
</svg>
