<?xml version="1.0" encoding="utf-8"?>
<!-- Generator: Adobe Illustrator 17.1.0, SVG Export Plug-In . SVG Version: 6.00 Build 0)  -->
<!DOCTYPE svg PUBLIC "-//W3C//DTD SVG 1.1//EN" "http://www.w3.org/Graphics/SVG/1.1/DTD/svg11.dtd">
<svg version="1.1" id="Layer_1" xmlns="http://www.w3.org/2000/svg" xmlns:xlink="http://www.w3.org/1999/xlink" x="0px" y="0px"
	 viewBox="0 0 354.482 343" enable-background="new 0 0 354.482 343" xml:space="preserve">
<g>
	<g>
		<path fill="#E2E2E2" stroke="#99636A" stroke-width="2.3378" stroke-miterlimit="10" d="M267.211,280.144
			c-45.463,46.953-119.174,46.959-164.634,0.006c-45.465-46.953-45.457-123.075,0.006-170.028
			c45.457-46.947,119.161-46.95,164.624,0.003C312.668,157.076,312.668,233.198,267.211,280.144z"/>
		<path fill="#99636A" stroke="#E2E2E2" stroke-width="2.3378" stroke-miterlimit="10" d="M264.866,277.722
			c-44.169,45.616-115.776,45.616-159.941,0.003c-44.167-45.614-44.166-119.563,0.003-165.18c44.163-45.61,115.767-45.613,159.933,0
			C309.026,158.159,309.027,232.112,264.866,277.722z"/>
		<path fill="#E2E2E2" stroke="#99636A" stroke-width="2.3378" stroke-miterlimit="10" d="M255.453,268.093
			c-38.542,39.804-101.035,39.804-139.574,0.003c-38.542-39.807-38.539-104.344,0.003-144.151
			c38.535-39.798,101.023-39.798,139.565,0.006C293.986,163.756,293.988,228.295,255.453,268.093z"/>
		<path fill="#99636A" stroke="#E2E2E2" stroke-width="1.5585" stroke-miterlimit="10" d="M249.907,262.364
			c-35.484,36.646-93,36.642-128.479,0c-35.474-36.636-35.483-96.044,0-132.689c35.473-36.633,92.999-36.63,128.472,0.006
			C285.379,166.323,285.379,225.731,249.907,262.364z"/>
		<path fill="#99636A" stroke="#E2E2E2" stroke-width="1.5585" stroke-miterlimit="10" d="M242.75,254.986
			c-31.53,32.565-82.648,32.565-114.177,0c-31.53-32.562-31.533-85.356-0.003-117.921c31.533-32.568,82.653-32.565,114.181,0
			C274.282,169.627,274.283,222.421,242.75,254.986z"/>
		<path fill="#99636A" stroke="#E2E2E2" stroke-width="1.5585" stroke-miterlimit="10" d="M185.222,230.373
			c-0.029,2.487-2.029,6.626-4.439,6.595l-145.704-1.578c-2.413-0.028-4.346-2.463-4.321-4.953c0.025-2.496,2.013-4.891,4.426-4.866
			l76.643,0.832c4.927-2.404,12.586-6.496,22.751-7.192C153.536,217.91,185.511,218.621,185.222,230.373z"/>
		<path fill="#99636A" stroke="#E2E2E2" stroke-width="1.5585" stroke-miterlimit="10" d="M190.675,198.776l-22.823-23.569
			l-3.415,3.526l24.599,25.404c-0.454,1.247-1.032,2.354-1.761,3.304l-25.318-26.146l-3.871,3.997l25.179,26.004
			c-1.85,1.501-3.025,1.986-4.33,2.339l-24.147-24.937l-3.449,3.561l21.861,22.579c-3.645-0.359-7.148-2.271-10.105-5.324
			l-17.216-17.778c-5.095-5.262-6.088-13.104-2.455-19.588L77.037,103.58c-1.601-1.652-1.102-5.673,0.499-7.329l0.279-0.288
			c1.603-1.655,3.4-0.006,5.004,1.649l66.388,68.564c6.274-3.749,13.868-2.726,18.963,2.536l17.216,17.781
			C188.845,190.062,190.278,194.968,190.675,198.776z"/>
	</g>
</g>
</svg>
