<?xml version="1.0" encoding="utf-8"?>
<!-- Generator: Adobe Illustrator 17.1.0, SVG Export Plug-In . SVG Version: 6.00 Build 0)  -->
<!DOCTYPE svg PUBLIC "-//W3C//DTD SVG 1.1//EN" "http://www.w3.org/Graphics/SVG/1.1/DTD/svg11.dtd">
<svg version="1.1" id="Layer_1" xmlns="http://www.w3.org/2000/svg" xmlns:xlink="http://www.w3.org/1999/xlink" x="0px" y="0px"
	 viewBox="0 0 354.482 343" enable-background="new 0 0 354.482 343" xml:space="preserve">
<g>
	<g>
		<path fill="#F6BE6C" stroke="#FFFFFF" stroke-width="2.0813" stroke-miterlimit="10" d="M211.413,68.872
			c-32.411,3.585-55.119,39.845-50.714,80.987c4.407,41.148,34.25,71.593,66.665,68.008c32.413-3.578,55.119-39.839,50.712-80.987
			C273.671,95.738,243.828,65.293,211.413,68.872z M226.77,212.312c-30,3.318-57.62-24.858-61.694-62.936
			c-4.079-38.078,16.935-71.631,46.931-74.949c30-3.318,57.622,24.864,61.697,62.936C277.778,175.441,256.766,209,226.77,212.312z"
			/>
		<path fill="#FFFFFF" stroke="#F6BE6C" stroke-width="2.0813" stroke-miterlimit="10" d="M232.929,68.662
			c-32.503-2.599-61.447,28.742-64.643,69.998c-3.198,41.256,20.562,76.811,53.065,79.417c32.503,2.599,61.447-28.741,64.643-69.998
			C289.185,106.823,265.439,71.268,232.929,68.662z M221.778,212.503c-30.079-2.403-52.062-35.314-49.101-73.493
			c2.956-38.186,29.739-67.182,59.82-64.779c30.084,2.415,52.066,35.313,49.106,73.493
			C278.645,185.916,251.862,214.911,221.778,212.503z"/>
		<path fill="#FFFFFF" stroke="#F6BE6C" stroke-width="4" stroke-miterlimit="10" d="M329.209,129.981l3.119-1.618v1.618h-3.373
			l-12.877-4.266l-11.599,1.998l-11.596-2.667l-11.593,2.336l-11.6-2.506l-11.596,2.418l-11.596-2.454l-11.603,2.432l-11.593-2.446
			l-11.593,2.446l-11.593-2.448l-11.606,2.447l-11.596-2.447l-11.593,2.447l-11.6-2.447l-11.596,2.447l-11.59-1.556l-12.883,4.266
			h-0.322v-1.618l0.071,1.618h-0.071v2.317v32.79v137.86c0,2.059,2.346,7.033,5.127,7.033h201.692c2.787,0,8.181-4.974,8.181-7.033
			V143.096v-10.799v-2.317H329.209z"/>
		<rect x="115.328" y="134.981" fill="#F6BE6C" width="215" height="20"/>
		<rect x="115.328" y="165.981" fill="#F6BE6C" width="215" height="15"/>
		<rect x="115.328" y="196.981" fill="#F6BE6C" width="215" height="15"/>
		<rect x="115.328" y="223.981" fill="#F6BE6C" width="215" height="19"/>
		<rect x="115.328" y="253.981" fill="#F6BE6C" width="215" height="15"/>
		<rect x="115.328" y="284.981" fill="#F6BE6C" width="215" height="15"/>
	</g>
	<g>
		<path fill="#F6BE6C" stroke="#FFFFFF" stroke-width="2.3025" stroke-miterlimit="10" d="M88.302,112.767
			c-21.183,2.485-36.025,27.629-33.146,56.167c2.882,28.532,22.388,49.646,43.574,47.161c21.183-2.485,36.025-27.629,33.146-56.167
			C128.994,131.396,109.488,110.282,88.302,112.767z M98.342,212.244c-19.608,2.301-37.66-17.237-40.324-43.653
			c-2.667-26.403,11.067-49.678,30.675-51.978c19.608-2.301,37.66,17.25,40.322,43.652
			C131.678,186.674,117.947,209.949,98.342,212.244z"/>
		<path fill="#FFFFFF" stroke="#F6BE6C" stroke-width="2.3025" stroke-miterlimit="10" d="M102.364,112.615
			c-21.243-1.799-40.158,19.939-42.245,48.547c-2.093,28.621,13.434,53.275,34.679,55.08c21.245,1.799,40.166-19.932,42.25-48.547
			C139.133,139.081,123.615,114.426,102.364,112.615z M95.078,212.371c-19.659-1.659-34.029-24.483-32.094-50.968
			c1.935-26.472,19.441-46.589,39.103-44.924c19.659,1.678,34.026,24.489,32.091,50.968
			C132.247,193.939,114.743,214.049,95.078,212.371z"/>
		<path fill="#FFFFFF" stroke="#F6BE6C" stroke-width="4" stroke-linejoin="round" stroke-miterlimit="10" d="M171.643,152.981
			l-0.315-0.993v0.993h0.137l-9.019-2.661l-8.132,1.257l-8.129-1.665l-8.123,1.457l-8.126-1.559l-8.126,1.505l-8.129-1.521
			l-8.129,1.516l-8.126-1.525l-8.123,1.518l-8.129-1.52l-8.126,1.519l-8.129-1.519l-8.126,1.519l-8.126-1.519l-8.126,1.519
			l-8.12-0.982l-9.029,2.66h-2.064v-0.993l1.882,0.993h-1.882v1.461v20.453v130.671c0,1.284,3.481,4.415,5.429,4.415H168.1
			c1.945,0,3.228-3.131,3.228-4.415V161.179v-6.737v-1.461H171.643z"/>
		<polygon fill="#F6BE6C" points="35.328,149.56 35.328,307.981 43.328,307.981 43.328,149.783 39.328,151.302 		"/>
		<polygon fill="#F6BE6C" points="62.328,149.56 62.328,307.981 77.328,307.981 77.328,149.783 69.828,151.302 		"/>
		<polygon fill="#F6BE6C" points="96.328,149.56 96.328,307.981 108.328,307.981 108.328,149.783 102.328,151.302 		"/>
		<polygon fill="#F6BE6C" points="127.328,149.56 127.328,307.981 146.328,307.981 146.328,149.783 136.825,151.302 		"/>
		<path fill="#F6BE6C" d="M171.602,152.236l-10.274-2.676v158.561c0,0,6.213,0.019,7.261-0.337c1.049-0.349,2.479-0.28,2.479-2.218
			S171.602,152.236,171.602,152.236z"/>
	</g>
</g>
</svg>
